<svg xmlns="http://www.w3.org/2000/svg" viewBox="0 0 400 100">
  <rect width="400" height="100" fill="none"/>
  <path d="M42.1 36.3c-7.8 0-14.1 6.3-14.1 14.1s6.3 14.1 14.1 14.1c4.5 0 8.5-2.1 11.1-5.3l-1.8-1.1c-2.1 2.6-5.3 4.3-9.3 4.3-6.6 0-12.1-5.5-12.1-12.1s5.5-12.1 12.1-12.1c4.1 0 7.6 2.1 9.7 5.4l1.8-1.2c-2.8-4-7.5-6.2-11.5-6.1z" fill="#00AED6"/>
  <path d="M72.9 36.3c-7.8 0-14.1 6.3-14.1 14.1s6.3 14.1 14.1 14.1c7.8 0 14.1-6.3 14.1-14.1s-6.3-14.1-14.1-14.1zm0 26.2c-6.6 0-12.1-5.5-12.1-12.1s5.5-12.1 12.1-12.1c6.6 0 12.1 5.5 12.1 12.1s-5.3 12.1-12.1 12.1z" fill="#00AED6"/>
  <path d="M103.6 36.3c-4.4 0-8.3 2-10.9 5.2V36.3h-2.1v28.2h2.1V51.7c0-6.6 5.5-12.1 12.1-12.1 1.2 0 2.4.2 3.4.6l.8-2c-1.7-.6-3.6-.9-5.4-.9z" fill="#00AED6"/>
  <path d="M136.5 36.3l-1.9 1.1c2.4 4 3.7 8.6 3.7 13.4s-1.3 9.4-3.7 13.4l1.9 1.1c2.6-4.5 4-9.5 4-14.5s-1.4-10-4-14.5z" fill="#00AED6"/>
  <text x="150" y="65" font-family="Arial, sans-serif" font-weight="bold" font-size="40" fill="#00AED6">GoPay</text>
</svg>
